<?xml version="1.0" encoding="UTF-8"?>
<svg version="1.1" viewBox="0 0 2048 1362" width="580" height="386" xmlns="http://www.w3.org/2000/svg">
<path transform="translate(725,334)" d="m0 0h221l25 2 25 5 19 7 16 9 12 9 14 14 9 13 6 11 6 14 6 21 2 13 1 12v52l-15 26-14 24-9 16-10 17-15 26-12 21-10 17-20 35-10 17-11 19-15 26-9 15-14 25-6 10-6 12-3 2 3-9 11-25 10-23 13-30 12-29-132 1-5 5-1 158-1 21-4 7-5 3-5 1h-85l-7-3-4-5-2-10v-535l2-8 4-5 4-3zm113 97-16 1-2 2-1 4v167l4 5 5 1h100l14-2 13-5 6-4 7-8 4-9 2-9 1-10v-64l-1-32-4-15-7-10-9-6-11-4-21-2z" fill="#FEFEFE"/>
<path transform="translate(1233,458)" d="m0 0h97l8 4 3 4v12l-10 38-17 66-13 50-14 54-12 46-11 42-11 44-6 22-10 39-15 57-12 47-8 30-3 6-8 7-6 2h-123l-9-3-5-4-4-8-8-30-12-47-7-26-7-28-8-30-7-28-6-23-10-38-3-11 1-7 8-13 9-16 6-10 9-16 12-21 9-15 8-14 14-24 12-21 11-19 14-24 13-23 10-17 13-23 1 3-19 42-11 26-15 35-17 39-1 6 9 39 8 39 8 37 15 70 7 34 12 54h2l8-36 15-71 10-46 9-43 6-27 10-47 13-61 12-57 11-50 4-10 6-5z" fill="#FEFEFE"/>
</svg>
